<mxfile host="app.diagrams.net" modified="2021-06-30T15:52:10.435Z" agent="5.0 (Macintosh; Intel Mac OS X 10_13_6) AppleWebKit/537.36 (KHTML, like Gecko) Chrome/91.0.4472.114 Safari/537.36" etag="tkwpA5hSPrUSVgjlBRpA" version="14.8.1" type="github">
  <diagram id="RCX8UjMyPUyR1wqOm1Pj" name="Page-3">
    <mxGraphModel dx="2852" dy="1836" grid="1" gridSize="10" guides="1" tooltips="1" connect="1" arrows="1" fold="1" page="1" pageScale="1" pageWidth="1920" pageHeight="1200" math="0" shadow="0">
      <root>
        <mxCell id="CYVsankMXV-RMAmFOc-R-0" />
        <mxCell id="CYVsankMXV-RMAmFOc-R-1" parent="CYVsankMXV-RMAmFOc-R-0" />
        <mxCell id="CYVsankMXV-RMAmFOc-R-2" value="" style="endArrow=none;html=1;fontFamily=Helvetica;fontSize=18;strokeColor=#B3B3B3;strokeWidth=1;fontColor=#2E2E2E;" edge="1" parent="CYVsankMXV-RMAmFOc-R-1">
          <mxGeometry width="50" height="50" relative="1" as="geometry">
            <mxPoint x="559" y="210" as="sourcePoint" />
            <mxPoint x="119" y="209.99999999999977" as="targetPoint" />
          </mxGeometry>
        </mxCell>
        <mxCell id="CYVsankMXV-RMAmFOc-R-3" value="&lt;h1&gt;Elementos de Fluxo&lt;/h1&gt;" style="text;strokeColor=none;fillColor=none;align=left;verticalAlign=middle;rounded=0;fontSize=18;fontColor=#2E2E2E;html=1;autosize=1;" vertex="1" parent="CYVsankMXV-RMAmFOc-R-1">
          <mxGeometry x="119" y="120" width="360" height="80" as="geometry" />
        </mxCell>
        <mxCell id="CYVsankMXV-RMAmFOc-R-4" value="Elementos de fluxo" style="text;html=1;strokeColor=none;fillColor=none;align=left;verticalAlign=middle;rounded=0;fontSize=14;fontColor=#2E2E2E;autosize=1;resizable=0;resizeHeight=1;fontStyle=2" vertex="1" parent="CYVsankMXV-RMAmFOc-R-1">
          <mxGeometry x="129" y="245" width="130" height="20" as="geometry" />
        </mxCell>
        <object label="&lt;b&gt;pagenumber:&lt;/b&gt; %pagenumber%" placeholders="1" id="FpgfsPhRv7HUvpzewL9a-0">
          <mxCell style="text;html=1;align=left;verticalAlign=middle;resizable=0;points=[];autosize=1;strokeColor=none;fontSize=14;fontFamily=Helvetica;" vertex="1" parent="CYVsankMXV-RMAmFOc-R-1">
            <mxGeometry x="129" y="370" width="120" height="20" as="geometry" />
          </mxCell>
        </object>
        <object label="&lt;b&gt;id:&amp;nbsp;&lt;/b&gt;%id%" placeholders="1" id="FpgfsPhRv7HUvpzewL9a-1">
          <mxCell style="text;html=1;align=left;verticalAlign=middle;resizable=0;points=[];autosize=1;strokeColor=none;fontSize=14;fontFamily=Helvetica;" vertex="1" parent="CYVsankMXV-RMAmFOc-R-1">
            <mxGeometry x="129" y="320" width="200" height="20" as="geometry" />
          </mxCell>
        </object>
        <object label="&lt;b&gt;Page Name: &lt;/b&gt;%page%&lt;span style=&quot;font-size: 14px&quot;&gt;	&lt;/span&gt;" placeholders="1" id="FpgfsPhRv7HUvpzewL9a-3">
          <mxCell style="text;html=1;align=left;verticalAlign=middle;resizable=0;points=[];autosize=1;strokeColor=none;fontSize=14;fontFamily=Helvetica;" vertex="1" parent="CYVsankMXV-RMAmFOc-R-1">
            <mxGeometry x="129" y="350" width="140" height="20" as="geometry" />
          </mxCell>
        </object>
        <object label="&lt;b&gt;Filename:&lt;/b&gt; %filename%&lt;span style=&quot;font-size: 14px&quot;&gt;	&lt;/span&gt;" placeholders="1" id="FpgfsPhRv7HUvpzewL9a-4">
          <mxCell style="text;html=1;align=left;verticalAlign=middle;resizable=0;points=[];autosize=1;strokeColor=none;fontSize=14;fontFamily=Helvetica;" vertex="1" parent="CYVsankMXV-RMAmFOc-R-1">
            <mxGeometry x="129" y="301" width="190" height="20" as="geometry" />
          </mxCell>
        </object>
        <object label="&lt;b&gt;Page:&lt;/b&gt;&amp;nbsp;%pagenumber% /&amp;nbsp;&lt;b&gt;&amp;nbsp;&lt;/b&gt;%pagecount%" placeholders="1" id="FpgfsPhRv7HUvpzewL9a-6">
          <mxCell style="text;html=1;align=left;verticalAlign=middle;resizable=0;points=[];autosize=1;strokeColor=none;fontSize=14;fontFamily=Helvetica;" vertex="1" parent="CYVsankMXV-RMAmFOc-R-1">
            <mxGeometry x="129" y="420" width="90" height="20" as="geometry" />
          </mxCell>
        </object>
        <mxCell id="e-H71KWMeDqUF_6DADQq-0" value="&lt;span style=&quot;font-size: 14px&quot;&gt;&lt;font color=&quot;#b3b3b3&quot; style=&quot;line-height: 70%&quot;&gt;Uma etapa do processo.&lt;br&gt;A etapa é escrita dentro da caixa.&lt;br&gt;Normalmente, apenas uma seta sai da caixa.&lt;/font&gt;&lt;/span&gt;" style="rounded=0;html=1;fontSize=14;fillColor=#FAFAFA;gradientColor=none;align=left;verticalAlign=middle;spacingLeft=140;strokeColor=#000000;fontColor=#B3B3B3;" vertex="1" parent="CYVsankMXV-RMAmFOc-R-1">
          <mxGeometry x="640" y="760" width="120" height="60" as="geometry" />
        </mxCell>
        <mxCell id="e-H71KWMeDqUF_6DADQq-1" value="Direção do fluxo de uma etapa ou decisão para outra." style="html=1;fontFamily=Helvetica;fontSize=14;strokeColor=#000000;rounded=0;align=left;fillColor=#FAFAFA;spacingLeft=80;fontColor=#B3B3B3;" edge="1" parent="CYVsankMXV-RMAmFOc-R-1">
          <mxGeometry x="640" y="145" width="50" height="50" as="geometry">
            <mxPoint x="640.0000000000005" y="255" as="sourcePoint" />
            <mxPoint x="760.0000000000005" y="255" as="targetPoint" />
          </mxGeometry>
        </mxCell>
        <mxCell id="e-H71KWMeDqUF_6DADQq-2" value="Decisão baseada em uma pergunta. A pergunta está escrita no diamante.&lt;br&gt;Mais de uma flecha sai do diamante, cada uma mostrando a direção &lt;br&gt;que o processo toma para uma determinada resposta à pergunta.&lt;br&gt;(Freqüentemente, as respostas são &quot;sim&quot; e &quot;não&quot;.)" style="rhombus;html=1;fontSize=14;fillColor=#FAFAFA;gradientColor=none;align=left;verticalAlign=middle;rounded=0;spacingLeft=140;fontColor=#B3B3B3;" vertex="1" parent="CYVsankMXV-RMAmFOc-R-1">
          <mxGeometry x="640" y="410" width="120" height="80" as="geometry" />
        </mxCell>
        <mxCell id="e-H71KWMeDqUF_6DADQq-3" value="Atrasar ou esperar" style="shape=delay;html=1;fontSize=14;fillColor=#FAFAFA;gradientColor=none;align=left;verticalAlign=middle;rounded=0;fontColor=#B3B3B3;spacingLeft=140;" vertex="1" parent="CYVsankMXV-RMAmFOc-R-1">
          <mxGeometry x="640" y="600" width="120" height="40" as="geometry" />
        </mxCell>
        <mxCell id="e-H71KWMeDqUF_6DADQq-4" value="&lt;meta charset=&quot;utf-8&quot;&gt;&lt;span style=&quot;color: rgb(179, 179, 179); font-family: helvetica; font-size: 18px; font-style: normal; font-weight: 400; letter-spacing: normal; text-align: left; text-indent: 0px; text-transform: none; word-spacing: 0px; background-color: rgb(248, 249, 250); display: inline; float: none;&quot;&gt;Entrada ou saída&lt;/span&gt;" style="shape=ellipse;html=1;whitespace=wrap;aspect=fixed;perimeter=ellipsePerimeter;fontSize=14;fillColor=#FAFAFA;gradientColor=none;align=left;verticalAlign=middle;rounded=0;fontColor=#B3B3B3;spacingLeft=100;" vertex="1" parent="CYVsankMXV-RMAmFOc-R-1">
          <mxGeometry x="1370" y="750" width="80" height="80" as="geometry" />
        </mxCell>
        <mxCell id="e-H71KWMeDqUF_6DADQq-5" value="&lt;span style=&quot;font-weight: normal&quot;&gt;Entrada ou saída&lt;/span&gt;" style="shape=parallelogram;perimeter=parallelogramPerimeter;html=1;fixedSize=1;fontSize=14;fillColor=#FAFAFA;gradientColor=none;align=left;verticalAlign=middle;rounded=0;fontColor=#B3B3B3;spacingLeft=140;" vertex="1" parent="CYVsankMXV-RMAmFOc-R-1">
          <mxGeometry x="1370" y="250" width="120" height="60" as="geometry" />
        </mxCell>
        <mxCell id="e-H71KWMeDqUF_6DADQq-6" value="&lt;span style=&quot;color: rgb(179 , 179 , 179)&quot;&gt;Documento&lt;/span&gt;" style="shape=document;whiteSpace=wrap;html=1;boundedLbl=1;fontSize=14;fillColor=#FAFAFA;gradientColor=none;align=left;verticalAlign=middle;rounded=0;fontColor=#B3B3B3;spacingLeft=140;" vertex="1" parent="CYVsankMXV-RMAmFOc-R-1">
          <mxGeometry x="1370" y="410" width="120" height="80" as="geometry" />
        </mxCell>
        <mxCell id="e-H71KWMeDqUF_6DADQq-7" value="" style="html=1;dashed=0;whitespace=wrap;shape=mxgraph.dfd.start;fontSize=18;fillColor=#FAFAFA;gradientColor=none;align=left;verticalAlign=middle;" vertex="1" parent="CYVsankMXV-RMAmFOc-R-1">
          <mxGeometry x="1370" y="605" width="80" height="30" as="geometry" />
        </mxCell>
      </root>
    </mxGraphModel>
  </diagram>
</mxfile>
